<?xml version="1.0" encoding="UTF-8"?>
<svg id="Layer_1" data-name="Layer 1" xmlns="http://www.w3.org/2000/svg" viewBox="0 0 198 136">
  <defs>
    <style>
      .cls-1 {
        fill: #fff;
        stroke-width: 0px;
      }
    </style>
  </defs>
  <g>
    <g>
      <g>
        <path class="cls-1" d="M130.24,42.53c.14,0,.26.12.26.26v18.03c0,5.28,2.08,7.92,6.25,7.92s6.25-2.64,6.25-7.92v-18.03c0-.14.12-.26.26-.26h6.84c.14,0,.26.12.26.26v18.19c0,2.55-.32,4.75-.95,6.61-.61,1.66-1.67,3.15-3.17,4.48-2.49,2.16-5.65,3.24-9.49,3.24s-6.97-1.08-9.45-3.24c-1.53-1.33-2.61-2.82-3.24-4.48-.61-1.48-.92-3.69-.92-6.61v-18.19c0-.14.12-.26.26-.26h6.84Z"/>
        <path class="cls-1" d="M178.56,58.36s-.01-.03-.01-.05c0-.04-.02-.07-.03-.1,0,0,0,0,0,0-.01-.03-.03-.05-.05-.07-.01-.02-.02-.04-.04-.06h0s0,0,0,0l-9.91-11.55c-.11-.12-.26-.2-.43-.2h-9.91s-.1,0-.14.02c-.01,0-.02,0-.03.01-.04.01-.08.03-.11.05,0,0-.01,0-.02,0-.04.03-.07.06-.11.09,0,0-.01.02-.02.03-.03.03-.05.07-.07.1,0,0,0,0-.01.02,0,0,0,0,0,0-.02.04-.03.09-.04.14,0,.01,0,.02,0,.04,0,.02,0,.04,0,.06v23.1s0,.04,0,.06c0,.01,0,.02,0,.04,0,.05.02.09.04.14,0,0,0,0,0,0,0,0,0,0,.01.02.02.04.04.07.07.1,0,0,.01.02.02.03.03.03.07.07.11.09,0,0,.01,0,.02,0,.03.02.07.04.11.05.01,0,.02,0,.03.01.05.01.09.02.14.02h9.91c.16,0,.32-.07.43-.2l9.91-11.55s0,0,0,0h0s.02-.04.04-.06c.02-.02.03-.05.05-.07,0,0,0,0,0,0,.01-.03.02-.07.03-.1,0-.02.01-.03.01-.05,0-.03,0-.05,0-.08s0-.05,0-.08ZM167.84,69.43h-8.43l8.94-10.43h8.43l-8.94,10.43ZM168.35,57.88l-8.94-10.43h8.43l8.94,10.43h-8.43Z"/>
      </g>
      <g>
        <g>
          <path class="cls-1" d="M79.38,60.26h-22.17c-.15,0-.27.13-.26.28.23,2.47,1.07,4.45,2.51,5.93,1.5,1.52,3.42,2.28,5.76,2.28,1.82,0,3.33-.43,4.52-1.3,1.14-.84,2.43-2.38,3.87-4.61.07-.11.22-.15.34-.09l5.74,3.2c.13.07.17.23.1.36-.91,1.53-1.88,2.85-2.89,3.95-1.06,1.16-2.2,2.11-3.42,2.86-1.21.75-2.53,1.3-3.94,1.64-1.41.35-2.94.52-4.59.52-4.73,0-8.52-1.52-11.38-4.55-2.86-3.06-4.29-7.11-4.29-12.17s1.39-9.06,4.16-12.17c2.8-3.06,6.51-4.59,11.12-4.59s8.35,1.49,11.06,4.46c2.69,2.95,4.03,7.04,4.03,12.26l-.03,1.47c0,.14-.12.25-.26.25ZM71.78,54.27c.17,0,.3-.16.25-.33-1.07-3.69-3.5-5.53-7.29-5.53-.89,0-1.72.14-2.5.41-.78.27-1.49.66-2.13,1.17-.64.51-1.19,1.12-1.64,1.84-.4.63-.72,1.33-.95,2.11-.05.16.08.33.25.33h14.03Z"/>
          <path class="cls-1" d="M116.01,29.87h-4.18c-.14,0-.25.14-.2.28.2.58.31,1.21.31,1.89,0,2.08-.69,3.69-2.06,4.79-.21.17-.44.33-.69.48l-.17.1c-.06.04-.1.11-.1.18v8.16c0,.23-.27.34-.43.18-2.82-2.75-5.99-4.12-9.52-4.12-4.27,0-7.82,1.59-10.64,4.78-2.84,3.17-4.26,7.11-4.26,11.84s1.42,8.87,4.26,12.1c2.86,3.17,6.46,4.75,10.8,4.75,3.46,0,6.58-1.27,9.36-3.82.16-.15.43-.03.43.19v2.47c0,.14.11.26.26.26h6.84c.14,0,.26-.11.26-.26V30.12c0-.14-.11-.26-.26-.26ZM106.87,65.95c-1.67,1.87-3.86,2.8-6.57,2.8-2.54,0-4.64-.96-6.31-2.89-1.63-1.91-2.44-4.38-2.44-7.42,0-2.84.83-5.23,2.5-7.16,1.69-1.91,3.79-2.86,6.31-2.86,2.67,0,4.84.94,6.51,2.83,1.67,1.93,2.5,4.38,2.5,7.35s-.84,5.42-2.5,7.35Z"/>
          <path class="cls-1" d="M35.65,67.44c-1.19.87-2.7,1.3-4.52,1.3-2.34,0-4.26-.76-5.76-2.28-1.5-1.54-2.34-3.61-2.54-6.21h0c-.07-.59-.1-1.19-.1-1.83,0-.55.03-1.08.09-1.59h0c.2-2.61,1.04-4.68,2.54-6.22,1.5-1.52,3.42-2.28,5.76-2.28,1.82,0,3.33.43,4.52,1.3,1.14.84,2.43,2.38,3.87,4.61.07.11.22.15.34.09l5.74-3.2c.13-.07.17-.23.1-.36-.91-1.53-1.88-2.85-2.89-3.95-1.06-1.16-2.2-2.11-3.42-2.86-1.21-.75-2.53-1.3-3.94-1.64-1.41-.35-2.94-.52-4.59-.52-4.73,0-8.52,1.52-11.38,4.55-2.42,2.59-3.82,5.9-4.19,9.92h0s0,.04,0,.06c-.03.32-.05.65-.07.98,0,.04,0,.08,0,.12-.02.36-.03.72-.03,1.09,0,0,0,.01,0,.02,0,0,0,0,0,.01,0,.03,0,.06,0,.09,0,.23,0,.46.01.68,0,.13,0,.26.02.39,0,.11.01.23.02.34.26,4.36,1.67,7.91,4.25,10.66,2.86,3.04,6.66,4.55,11.38,4.55,1.65,0,3.18-.17,4.59-.52,1.41-.35,2.72-.89,3.94-1.64,1.21-.75,2.35-1.7,3.42-2.86,1.01-1.11,1.98-2.42,2.89-3.95.07-.12.03-.29-.1-.36l-5.74-3.2c-.12-.07-.27-.03-.34.09-1.44,2.23-2.73,3.77-3.87,4.61Z"/>
        </g>
        <g>
          <polygon class="cls-1" points="17.22 18.96 17.22 37.29 20.5 37.29 20.5 32.42 20.02 21.46 25.74 37.29 27.98 37.29 33.72 21.46 33.24 32.43 33.24 37.29 36.53 37.29 36.53 18.96 31.94 18.96 26.87 33.33 21.79 18.96 17.22 18.96"/>
          <rect class="cls-1" x="43.48" y="18.96" width="3.28" height="18.32"/>
          <polygon class="cls-1" points="56.94 29.05 64.44 29.05 64.44 26.64 56.94 26.64 56.94 21.5 65.71 21.5 65.71 18.96 53.66 18.96 53.66 37.29 65.74 37.29 65.74 34.78 56.94 34.78 56.94 29.05"/>
          <polygon class="cls-1" points="71.32 18.96 71.32 37.29 74.6 37.29 74.6 32.42 74.12 21.46 79.84 37.29 82.08 37.29 87.82 21.46 87.34 32.43 87.34 37.29 90.63 37.29 90.63 18.96 86.04 18.96 80.98 33.33 75.89 18.96 71.32 18.96"/>
          <path class="cls-1" d="M107.89,28.16l-.95-.24.92-.36c.79-.3,1.41-.79,1.84-1.44.44-.65.66-1.42.66-2.28,0-1.61-.54-2.79-1.66-3.62-1.13-.84-2.83-1.26-5.05-1.26h-6.32v18.32h7.05c2.07-.02,3.67-.47,4.78-1.36,1.1-.88,1.63-2.16,1.63-3.9,0-.99-.26-1.84-.78-2.52-.51-.68-1.23-1.13-2.12-1.36ZM100.61,21.5h3.05c1.16,0,1.99.21,2.55.63.58.44.87,1.15.87,2.1,0,1.19-.57,2.62-3.26,2.67h-2.89s-.31,0-.31,0v-5.4ZM106.62,34.05c-.57.49-1.36.73-2.36.73h-3.66v-5.74h3.89c1.97.03,3.01,1.05,3.01,2.95,0,.86-.3,1.56-.88,2.05Z"/>
          <path class="cls-1" d="M127.22,29.39c1.08-.48,1.89-1.14,2.41-1.95.52-.81.79-1.84.79-3.06,0-1.74-.56-3.04-1.71-3.99-1.15-.95-2.83-1.43-4.98-1.43h-6.73v18.32h3.28v-6.94h3.61l3.55,6.94h3.58l-4.11-7.76.3-.14ZM123.75,27.81h-3.46v-6.31h3.45c1.13,0,1.99.29,2.56.86.57.57.85,1.35.85,2.33s-.31,1.73-.91,2.29c-.6.55-1.43.83-2.49.83Z"/>
          <path class="cls-1" d="M147.91,19.8c-1.17-.72-2.53-1.09-4.05-1.09s-2.87.37-4.05,1.09c-1.17.72-2.09,1.78-2.73,3.13-.65,1.37-.98,2.98-.98,4.79v.94c0,1.76.34,3.35,1,4.7.65,1.34,1.57,2.38,2.74,3.1,1.18.72,2.54,1.09,4.04,1.09s2.89-.37,4.06-1.1c1.17-.73,2.08-1.78,2.71-3.12.64-1.36.96-2.96.96-4.77v-.85c0-1.8-.33-3.41-.98-4.78-.64-1.36-1.56-2.41-2.73-3.13ZM148.29,28.62c0,2.03-.39,3.6-1.12,4.67-.76,1.11-1.86,1.68-3.28,1.68s-2.56-.59-3.33-1.74c-.74-1.11-1.12-2.69-1.12-4.68v-.92c0-2.03.39-3.59,1.14-4.66.77-1.1,1.88-1.66,3.29-1.66s2.53.57,3.3,1.68c.74,1.08,1.12,2.66,1.12,4.71v.92Z"/>
        </g>
      </g>
    </g>
    <path class="cls-1" d="M166.52,32.19c0-.82-.31-1.46-.93-1.92-.62-.46-1.7-.85-3.24-1.18-1.54-.33-2.77-.72-3.67-1.19s-1.57-1.01-2.01-1.65c-.43-.64-.65-1.39-.65-2.27,0-1.46.62-2.69,1.85-3.7,1.23-1.01,2.81-1.51,4.73-1.51,2.02,0,3.66.52,4.91,1.56,1.26,1.04,1.88,2.38,1.88,4h-3.06c0-.83-.35-1.55-1.06-2.16-.71-.6-1.6-.91-2.68-.91s-1.98.24-2.6.72c-.63.48-.94,1.11-.94,1.89,0,.73.29,1.29.87,1.66.58.37,1.63.73,3.15,1.07,1.52.34,2.75.75,3.7,1.22.94.47,1.64,1.04,2.1,1.7.46.66.68,1.47.68,2.43,0,1.59-.64,2.87-1.91,3.83-1.27.96-2.92,1.44-4.96,1.44-1.43,0-2.69-.25-3.79-.76-1.1-.5-1.96-1.21-2.58-2.12-.62-.9-.93-1.89-.93-2.94h3.05c.05,1.02.46,1.83,1.23,2.43.76.6,1.77.9,3.02.9,1.15,0,2.08-.23,2.77-.7.7-.47,1.05-1.09,1.05-1.87Z"/>
  </g>
  <g>
    <path class="cls-1" d="M23.2,96.61c-.13,1.08-.52,1.91-1.2,2.5-.67.59-1.56.88-2.68.88-1.21,0-2.17-.43-2.9-1.3-.73-.87-1.09-2.02-1.09-3.47v-.98c0-.95.17-1.78.51-2.5.34-.72.82-1.27,1.44-1.66.62-.39,1.34-.58,2.16-.58,1.08,0,1.95.3,2.61.91.65.61,1.04,1.44,1.14,2.51h-1.35c-.12-.82-.37-1.41-.76-1.77-.39-.37-.94-.55-1.64-.55-.86,0-1.54.32-2.02.95-.49.64-.73,1.54-.73,2.72v.99c0,1.11.23,1.99.69,2.65.46.66,1.11.98,1.94.98.75,0,1.32-.17,1.72-.51.4-.34.67-.93.8-1.77h1.35Z"/>
    <path class="cls-1" d="M29.74,99.85c-.07-.15-.14-.42-.18-.8-.6.63-1.32.94-2.16.94-.75,0-1.36-.21-1.84-.63-.48-.42-.72-.96-.72-1.61,0-.79.3-1.4.9-1.84.6-.44,1.45-.66,2.54-.66h1.26v-.6c0-.45-.14-.81-.41-1.08-.27-.27-.67-.4-1.2-.4-.46,0-.85.12-1.16.35-.31.23-.47.52-.47.85h-1.3c0-.38.13-.74.4-1.1.27-.35.63-.63,1.09-.84.46-.21.97-.31,1.52-.31.87,0,1.56.22,2.06.66.5.44.75,1.04.77,1.81v3.49c0,.7.09,1.25.27,1.66v.11h-1.36ZM27.59,98.86c.41,0,.79-.11,1.16-.32.36-.21.63-.48.79-.82v-1.56h-1.02c-1.59,0-2.39.47-2.39,1.4,0,.41.14.72.41.95s.62.34,1.05.34ZM28.78,89.09h1.57l-1.88,2.06h-1.05s1.35-2.06,1.35-2.06Z"/>
    <path class="cls-1" d="M34.3,92.26l.04.84c.56-.65,1.31-.98,2.25-.98,1.06,0,1.78.41,2.17,1.22.25-.36.58-.66.99-.88.4-.22.88-.34,1.43-.34,1.66,0,2.51.88,2.54,2.64v5.09h-1.3v-5.01c0-.54-.12-.95-.37-1.22s-.66-.4-1.25-.4c-.48,0-.88.14-1.2.43-.32.29-.5.67-.55,1.16v5.04h-1.3v-4.97c0-1.1-.54-1.66-1.62-1.66-.85,0-1.43.36-1.75,1.09v5.54h-1.3v-7.59h1.23Z"/>
    <path class="cls-1" d="M50.58,99.85c-.07-.15-.14-.42-.18-.8-.6.63-1.32.94-2.16.94-.75,0-1.36-.21-1.84-.63-.48-.42-.72-.96-.72-1.61,0-.79.3-1.4.9-1.84.6-.44,1.45-.66,2.54-.66h1.26v-.6c0-.45-.14-.81-.41-1.08-.27-.27-.67-.4-1.2-.4-.46,0-.85.12-1.16.35-.31.23-.47.52-.47.85h-1.3c0-.38.13-.74.4-1.1.27-.35.63-.63,1.09-.84.46-.21.97-.31,1.52-.31.87,0,1.56.22,2.06.66.5.44.75,1.04.77,1.81v3.49c0,.7.09,1.25.27,1.66v.11h-1.36ZM48.42,98.86c.41,0,.79-.11,1.16-.32.36-.21.63-.48.79-.82v-1.56h-1.02c-1.59,0-2.39.47-2.39,1.4,0,.41.14.72.41.95s.62.34,1.05.34Z"/>
    <path class="cls-1" d="M57.59,93.42c-.2-.03-.41-.05-.64-.05-.85,0-1.43.36-1.73,1.09v5.39h-1.3v-7.59h1.26l.02.88c.43-.68,1.03-1.02,1.81-1.02.25,0,.44.03.58.1v1.21Z"/>
    <path class="cls-1" d="M63.4,99.85c-.07-.15-.14-.42-.18-.8-.6.63-1.32.94-2.16.94-.75,0-1.36-.21-1.84-.63-.48-.42-.72-.96-.72-1.61,0-.79.3-1.4.9-1.84.6-.44,1.45-.66,2.54-.66h1.26v-.6c0-.45-.14-.81-.41-1.08-.27-.27-.67-.4-1.2-.4-.46,0-.85.12-1.16.35-.31.23-.47.52-.47.85h-1.3c0-.38.13-.74.4-1.1.27-.35.63-.63,1.09-.84.46-.21.97-.31,1.52-.31.87,0,1.56.22,2.06.66.5.44.75,1.04.77,1.81v3.49c0,.7.09,1.25.27,1.66v.11h-1.36ZM61.25,98.86c.41,0,.79-.11,1.16-.32.36-.21.63-.48.79-.82v-1.56h-1.02c-1.59,0-2.39.47-2.39,1.4,0,.41.14.72.41.95s.62.34,1.05.34Z"/>
    <path class="cls-1" d="M76.5,95.13h-4.43v3.62h5.14v1.1h-6.49v-10.21h6.42v1.1h-5.07v3.29h4.43v1.1Z"/>
    <path class="cls-1" d="M80.12,92.26l.04.84c.56-.65,1.31-.98,2.25-.98,1.06,0,1.78.41,2.17,1.22.25-.36.58-.66.99-.88.4-.22.88-.34,1.43-.34,1.66,0,2.51.88,2.54,2.64v5.09h-1.3v-5.01c0-.54-.12-.95-.37-1.22s-.66-.4-1.25-.4c-.48,0-.88.14-1.2.43-.32.29-.5.67-.55,1.16v5.04h-1.3v-4.97c0-1.1-.54-1.66-1.62-1.66-.85,0-1.43.36-1.75,1.09v5.54h-1.3v-7.59h1.23Z"/>
    <path class="cls-1" d="M98.12,96.14c0,1.16-.26,2.09-.79,2.79-.53.71-1.24,1.06-2.15,1.06s-1.65-.29-2.17-.88v3.65h-1.3v-10.51h1.19l.06.84c.53-.65,1.26-.98,2.2-.98s1.63.34,2.16,1.03c.53.69.8,1.64.8,2.87v.12ZM96.82,95.99c0-.86-.18-1.53-.55-2.03-.36-.5-.87-.74-1.5-.74-.79,0-1.37.35-1.77,1.05v3.63c.39.69.98,1.04,1.78,1.04.62,0,1.12-.25,1.48-.74s.55-1.23.55-2.2Z"/>
    <path class="cls-1" d="M103.65,93.42c-.2-.03-.41-.05-.64-.05-.85,0-1.43.36-1.73,1.09v5.39h-1.3v-7.59h1.26l.02.88c.43-.68,1.03-1.02,1.81-1.02.25,0,.44.03.58.1v1.21Z"/>
    <path class="cls-1" d="M108.08,99.99c-1.03,0-1.87-.34-2.51-1.01-.65-.68-.97-1.58-.97-2.71v-.24c0-.75.14-1.43.43-2.02.29-.59.69-1.05,1.21-1.39.52-.33,1.08-.5,1.68-.5.99,0,1.75.32,2.3.98.55.65.82,1.58.82,2.79v.54h-5.14c.02.75.24,1.35.66,1.81.42.46.95.69,1.6.69.46,0,.85-.09,1.16-.28.32-.19.6-.43.83-.74l.79.62c-.64.98-1.59,1.47-2.86,1.47ZM107.91,93.18c-.52,0-.96.19-1.32.57-.36.38-.58.92-.66,1.6h3.8v-.1c-.04-.66-.22-1.17-.53-1.53-.32-.36-.75-.54-1.29-.54Z"/>
    <path class="cls-1" d="M117.17,97.83c0-.35-.13-.62-.4-.82-.26-.19-.72-.36-1.38-.5-.66-.14-1.18-.31-1.56-.51-.39-.2-.67-.43-.86-.7-.18-.27-.28-.59-.28-.97,0-.62.26-1.15.79-1.58.53-.43,1.2-.65,2.02-.65.86,0,1.56.22,2.09.67.54.44.8,1.01.8,1.7h-1.3c0-.36-.15-.66-.45-.92-.3-.26-.68-.39-1.14-.39s-.84.1-1.11.31c-.27.21-.4.47-.4.81,0,.31.12.55.37.71.25.16.7.31,1.34.46.65.14,1.17.32,1.57.52.4.2.7.44.89.73.19.28.29.63.29,1.03,0,.68-.27,1.22-.81,1.63-.54.41-1.25.61-2.11.61-.61,0-1.15-.11-1.61-.32-.47-.21-.83-.52-1.1-.9-.26-.39-.4-.8-.4-1.25h1.3c.02.43.2.78.52,1.03.32.25.75.38,1.29.38.49,0,.88-.1,1.18-.3.3-.2.45-.46.45-.8Z"/>
    <path class="cls-1" d="M125.06,99.85c-.07-.15-.14-.42-.18-.8-.6.63-1.32.94-2.16.94-.75,0-1.36-.21-1.84-.63-.48-.42-.72-.96-.72-1.61,0-.79.3-1.4.9-1.84.6-.44,1.45-.66,2.54-.66h1.26v-.6c0-.45-.14-.81-.41-1.08-.27-.27-.67-.4-1.2-.4-.46,0-.85.12-1.16.35-.31.23-.47.52-.47.85h-1.3c0-.38.13-.74.4-1.1.27-.35.63-.63,1.09-.84.46-.21.97-.31,1.52-.31.87,0,1.56.22,2.06.66.5.44.75,1.04.77,1.81v3.49c0,.7.09,1.25.27,1.66v.11h-1.36ZM122.91,98.86c.41,0,.79-.11,1.16-.32.36-.21.63-.48.79-.82v-1.56h-1.02c-1.59,0-2.39.47-2.39,1.4,0,.41.14.72.41.95s.62.34,1.05.34Z"/>
    <path class="cls-1" d="M132.07,93.42c-.2-.03-.41-.05-.64-.05-.85,0-1.43.36-1.73,1.09v5.39h-1.3v-7.59h1.26l.02.88c.43-.68,1.03-1.02,1.81-1.02.25,0,.44.03.58.1v1.21Z"/>
    <path class="cls-1" d="M133.49,90.25c0-.21.06-.39.19-.53.13-.14.32-.22.57-.22s.44.07.58.22.2.32.2.53-.07.39-.2.53c-.13.14-.32.21-.58.21s-.44-.07-.57-.21c-.13-.14-.19-.32-.19-.53ZM134.89,99.85h-1.3v-7.59h1.3v7.59Z"/>
    <path class="cls-1" d="M141.87,99.85c-.07-.15-.14-.42-.18-.8-.6.63-1.32.94-2.16.94-.75,0-1.36-.21-1.84-.63-.48-.42-.72-.96-.72-1.61,0-.79.3-1.4.9-1.84.6-.44,1.45-.66,2.54-.66h1.26v-.6c0-.45-.14-.81-.41-1.08-.27-.27-.67-.4-1.2-.4-.46,0-.85.12-1.16.35-.31.23-.47.52-.47.85h-1.3c0-.38.13-.74.4-1.1.27-.35.63-.63,1.09-.84.46-.21.97-.31,1.52-.31.87,0,1.56.22,2.06.66.5.44.75,1.04.77,1.81v3.49c0,.7.09,1.25.27,1.66v.11h-1.36ZM139.72,98.86c.41,0,.79-.11,1.16-.32.36-.21.63-.48.79-.82v-1.56h-1.02c-1.59,0-2.39.47-2.39,1.4,0,.41.14.72.41.95s.62.34,1.05.34Z"/>
    <path class="cls-1" d="M148.67,95.99c0-1.16.28-2.1.83-2.81.55-.71,1.27-1.06,2.17-1.06s1.59.3,2.11.91v-3.96h1.3v10.77h-1.19l-.06-.81c-.52.64-1.24.95-2.17.95s-1.6-.36-2.15-1.08c-.55-.72-.83-1.66-.83-2.82v-.1ZM149.97,96.14c0,.86.18,1.53.53,2.02.36.49.85.73,1.47.73.82,0,1.42-.37,1.8-1.11v-3.49c-.39-.72-.98-1.07-1.79-1.07-.64,0-1.13.25-1.49.74-.36.49-.53,1.22-.53,2.18Z"/>
    <path class="cls-1" d="M160.45,99.99c-1.03,0-1.87-.34-2.51-1.01-.65-.68-.97-1.58-.97-2.71v-.24c0-.75.14-1.43.43-2.02.29-.59.69-1.05,1.21-1.39.52-.33,1.08-.5,1.68-.5.99,0,1.75.32,2.3.98.55.65.82,1.58.82,2.79v.54h-5.14c.02.75.24,1.35.66,1.81.42.46.95.69,1.6.69.46,0,.85-.09,1.16-.28.32-.19.6-.43.83-.74l.79.62c-.64.98-1.59,1.47-2.86,1.47ZM160.29,93.18c-.52,0-.96.19-1.32.57-.36.38-.58.92-.66,1.6h3.8v-.1c-.04-.66-.22-1.17-.53-1.53-.32-.36-.75-.54-1.29-.54Z"/>
    <path class="cls-1" d="M15.69,114.32v-10.21h2.88c.89,0,1.67.2,2.36.59.68.39,1.21.95,1.58,1.68s.56,1.56.56,2.5v.65c0,.96-.19,1.81-.56,2.53s-.9,1.28-1.59,1.67c-.69.39-1.49.59-2.41.6h-2.83ZM17.04,105.21v8.01h1.42c1.04,0,1.85-.32,2.42-.97s.87-1.57.87-2.76v-.6c0-1.16-.27-2.06-.82-2.71-.54-.64-1.32-.97-2.32-.98h-1.57Z"/>
    <path class="cls-1" d="M28.27,114.46c-1.03,0-1.87-.34-2.51-1.01-.65-.68-.97-1.58-.97-2.71v-.24c0-.75.14-1.43.43-2.02.29-.59.69-1.05,1.21-1.39.52-.33,1.08-.5,1.68-.5.99,0,1.75.32,2.3.98.55.65.82,1.58.82,2.79v.54h-5.14c.02.75.24,1.35.66,1.81.42.46.95.69,1.6.69.46,0,.85-.09,1.16-.28.32-.19.6-.43.83-.74l.79.62c-.64.98-1.59,1.47-2.86,1.47ZM28.11,107.65c-.52,0-.96.19-1.32.57-.36.38-.58.92-.66,1.6h3.8v-.1c-.04-.66-.22-1.17-.53-1.53-.32-.36-.75-.54-1.29-.54Z"/>
    <path class="cls-1" d="M37.37,112.3c0-.35-.13-.62-.4-.82-.26-.19-.72-.36-1.38-.5-.66-.14-1.18-.31-1.56-.51-.39-.2-.67-.43-.86-.7-.18-.27-.28-.59-.28-.97,0-.62.26-1.15.79-1.58.53-.43,1.2-.65,2.02-.65.86,0,1.56.22,2.09.67.54.44.8,1.01.8,1.7h-1.3c0-.36-.15-.66-.45-.92-.3-.26-.68-.39-1.14-.39s-.84.1-1.11.31c-.27.21-.4.47-.4.81,0,.31.12.55.37.71.25.16.7.31,1.34.46.65.14,1.17.32,1.57.52.4.2.7.44.89.73.19.28.29.63.29,1.03,0,.68-.27,1.22-.81,1.63-.54.41-1.25.61-2.11.61-.61,0-1.15-.11-1.61-.32-.47-.21-.83-.52-1.1-.9-.26-.39-.4-.8-.4-1.25h1.3c.02.43.2.78.52,1.03.32.25.75.38,1.29.38.49,0,.88-.1,1.18-.3.3-.2.45-.46.45-.8Z"/>
    <path class="cls-1" d="M45.26,114.32c-.07-.15-.14-.42-.18-.8-.6.63-1.32.94-2.16.94-.75,0-1.36-.21-1.84-.63-.48-.42-.72-.96-.72-1.61,0-.79.3-1.4.9-1.84.6-.44,1.45-.66,2.54-.66h1.26v-.6c0-.45-.14-.81-.41-1.08-.27-.27-.67-.4-1.2-.4-.46,0-.85.12-1.16.35-.31.23-.47.52-.47.85h-1.3c0-.38.13-.74.4-1.1.27-.35.63-.63,1.09-.84.46-.21.97-.31,1.52-.31.87,0,1.56.22,2.06.66.5.44.75,1.04.77,1.81v3.49c0,.7.09,1.25.27,1.66v.11h-1.36ZM43.11,113.33c.41,0,.79-.11,1.16-.32.36-.21.63-.48.79-.82v-1.56h-1.02c-1.59,0-2.39.47-2.39,1.4,0,.41.14.72.41.95s.62.34,1.05.34Z"/>
    <path class="cls-1" d="M52.27,107.89c-.2-.03-.41-.05-.64-.05-.85,0-1.43.36-1.73,1.09v5.39h-1.3v-7.59h1.26l.02.88c.43-.68,1.03-1.02,1.81-1.02.25,0,.44.03.58.1v1.21Z"/>
    <path class="cls-1" d="M57.35,107.89c-.2-.03-.41-.05-.64-.05-.85,0-1.43.36-1.73,1.09v5.39h-1.3v-7.59h1.26l.02.88c.43-.68,1.03-1.02,1.81-1.02.25,0,.44.03.58.1v1.21Z"/>
    <path class="cls-1" d="M58.27,110.45c0-.74.15-1.41.44-2.01.29-.59.7-1.05,1.22-1.37.52-.32,1.12-.48,1.79-.48,1.03,0,1.87.36,2.51,1.07.64.72.96,1.67.96,2.86v.09c0,.74-.14,1.4-.42,1.99-.28.59-.69,1.04-1.21,1.37-.53.33-1.13.49-1.81.49-1.03,0-1.86-.36-2.5-1.07-.64-.72-.96-1.66-.96-2.84v-.09ZM59.58,110.61c0,.84.2,1.52.59,2.03.39.51.91.76,1.57.76s1.18-.26,1.57-.78c.39-.52.58-1.24.58-2.17,0-.83-.2-1.51-.59-2.02-.4-.52-.92-.78-1.57-.78s-1.16.25-1.55.76-.59,1.24-.59,2.19Z"/>
    <path class="cls-1" d="M68.44,114.32h-1.3v-10.77h1.3v10.77Z"/>
    <path class="cls-1" d="M72.14,114.32h-1.3v-10.77h1.3v10.77Z"/>
    <path class="cls-1" d="M79.11,114.32c-.07-.15-.14-.42-.18-.8-.6.63-1.32.94-2.16.94-.75,0-1.36-.21-1.84-.63-.48-.42-.72-.96-.72-1.61,0-.79.3-1.4.9-1.84.6-.44,1.45-.66,2.54-.66h1.26v-.6c0-.45-.14-.81-.41-1.08-.27-.27-.67-.4-1.2-.4-.46,0-.85.12-1.16.35-.31.23-.47.52-.47.85h-1.3c0-.38.13-.74.4-1.1.27-.35.63-.63,1.09-.84.46-.21.97-.31,1.52-.31.87,0,1.56.22,2.06.66.5.44.75,1.04.77,1.81v3.49c0,.7.09,1.25.27,1.66v.11h-1.36ZM76.96,113.33c.41,0,.79-.11,1.16-.32.36-.21.63-.48.79-.82v-1.56h-1.02c-1.59,0-2.39.47-2.39,1.4,0,.41.14.72.41.95s.62.34,1.05.34Z"/>
    <path class="cls-1" d="M82.14,110.46c0-1.16.28-2.1.83-2.81.55-.71,1.27-1.06,2.17-1.06s1.59.3,2.11.91v-3.96h1.3v10.77h-1.19l-.06-.81c-.52.64-1.24.95-2.17.95s-1.6-.36-2.15-1.08c-.55-.72-.83-1.66-.83-2.82v-.1ZM83.44,110.61c0,.86.18,1.53.53,2.02.36.49.85.73,1.47.73.82,0,1.42-.37,1.8-1.11v-3.49c-.39-.72-.98-1.07-1.79-1.07-.64,0-1.13.25-1.49.74-.36.49-.53,1.22-.53,2.18Z"/>
    <path class="cls-1" d="M90.43,110.45c0-.74.15-1.41.44-2.01.29-.59.7-1.05,1.22-1.37.52-.32,1.12-.48,1.79-.48,1.03,0,1.87.36,2.51,1.07.64.72.96,1.67.96,2.86v.09c0,.74-.14,1.4-.42,1.99-.28.59-.69,1.04-1.21,1.37-.53.33-1.13.49-1.81.49-1.03,0-1.86-.36-2.5-1.07-.64-.72-.96-1.66-.96-2.84v-.09ZM91.74,110.61c0,.84.2,1.52.59,2.03.39.51.91.76,1.57.76s1.18-.26,1.57-.78c.39-.52.58-1.24.58-2.17,0-.83-.2-1.51-.59-2.02-.4-.52-.92-.78-1.57-.78s-1.16.25-1.55.76-.59,1.24-.59,2.19Z"/>
    <path class="cls-1" d="M102.85,107.89c-.2-.03-.41-.05-.64-.05-.85,0-1.43.36-1.73,1.09v5.39h-1.3v-7.59h1.26l.02.88c.43-.68,1.03-1.02,1.81-1.02.25,0,.44.03.58.1v1.21Z"/>
    <path class="cls-1" d="M107.28,114.46c-1.03,0-1.87-.34-2.51-1.01-.65-.68-.97-1.58-.97-2.71v-.24c0-.75.14-1.43.43-2.02.29-.59.69-1.05,1.21-1.39.52-.33,1.08-.5,1.68-.5.99,0,1.75.32,2.3.98.55.65.82,1.58.82,2.79v.54h-5.14c.02.75.24,1.35.66,1.81.42.46.95.69,1.6.69.46,0,.85-.09,1.16-.28.32-.19.6-.43.83-.74l.79.62c-.64.98-1.59,1.47-2.86,1.47ZM107.12,107.65c-.52,0-.96.19-1.32.57-.36.38-.58.92-.66,1.6h3.8v-.1c-.04-.66-.22-1.17-.53-1.53-.32-.36-.75-.54-1.29-.54Z"/>
    <path class="cls-1" d="M116.38,112.3c0-.35-.13-.62-.4-.82-.26-.19-.72-.36-1.38-.5-.66-.14-1.18-.31-1.56-.51-.39-.2-.67-.43-.86-.7-.18-.27-.28-.59-.28-.97,0-.62.26-1.15.79-1.58.53-.43,1.2-.65,2.02-.65.86,0,1.56.22,2.09.67.54.44.8,1.01.8,1.7h-1.3c0-.36-.15-.66-.45-.92-.3-.26-.68-.39-1.14-.39s-.84.1-1.11.31c-.27.21-.4.47-.4.81,0,.31.12.55.37.71.25.16.7.31,1.34.46.65.14,1.17.32,1.57.52.4.2.7.44.89.73.19.28.29.63.29,1.03,0,.68-.27,1.22-.81,1.63-.54.41-1.25.61-2.11.61-.61,0-1.15-.11-1.61-.32-.47-.21-.83-.52-1.1-.9-.26-.39-.4-.8-.4-1.25h1.3c.02.43.2.78.52,1.03.32.25.75.38,1.29.38.49,0,.88-.1,1.18-.3.3-.2.45-.46.45-.8Z"/>
    <path class="cls-1" d="M130.74,104.1v6.94c0,.96-.31,1.75-.91,2.36-.6.61-1.42.96-2.44,1.03h-.36c-1.12.01-2.01-.29-2.67-.89-.66-.6-1-1.43-1.01-2.49v-6.96h1.33v6.92c0,.74.2,1.31.61,1.72.41.41.99.61,1.74.61s1.35-.2,1.75-.61.61-.98.61-1.72v-6.92h1.35Z"/>
    <path class="cls-1" d="M136.55,107.89c-.2-.03-.41-.05-.64-.05-.85,0-1.43.36-1.73,1.09v5.39h-1.3v-7.59h1.26l.02.88c.43-.68,1.03-1.02,1.81-1.02.25,0,.44.03.58.1v1.21Z"/>
    <path class="cls-1" d="M144.38,110.61c0,1.16-.27,2.09-.8,2.8-.53.7-1.25,1.06-2.15,1.06-.96,0-1.7-.34-2.22-1.02l-.06.88h-1.19v-10.77h1.3v4.02c.52-.65,1.25-.98,2.17-.98s1.64.35,2.17,1.05c.53.7.79,1.65.79,2.86v.11ZM143.09,110.46c0-.88-.17-1.57-.51-2.05-.34-.48-.83-.72-1.47-.72-.86,0-1.47.4-1.84,1.19v3.28c.4.8,1.02,1.19,1.86,1.19.62,0,1.11-.24,1.45-.72.35-.48.52-1.21.52-2.17Z"/>
    <path class="cls-1" d="M150.92,114.32c-.07-.15-.14-.42-.18-.8-.6.63-1.32.94-2.16.94-.75,0-1.36-.21-1.84-.63-.48-.42-.72-.96-.72-1.61,0-.79.3-1.4.9-1.84.6-.44,1.45-.66,2.54-.66h1.26v-.6c0-.45-.14-.81-.41-1.08-.27-.27-.67-.4-1.2-.4-.46,0-.85.12-1.16.35-.31.23-.47.52-.47.85h-1.3c0-.38.13-.74.4-1.1.27-.35.63-.63,1.09-.84.46-.21.97-.31,1.52-.31.87,0,1.56.22,2.06.66.5.44.75,1.04.77,1.81v3.49c0,.7.09,1.25.27,1.66v.11h-1.36ZM148.77,113.33c.41,0,.79-.11,1.16-.32.36-.21.63-.48.79-.82v-1.56h-1.02c-1.59,0-2.39.47-2.39,1.4,0,.41.14.72.41.95s.62.34,1.05.34Z"/>
    <path class="cls-1" d="M155.49,106.73l.04.95c.58-.73,1.34-1.09,2.27-1.09,1.6,0,2.41.9,2.43,2.71v5.02h-1.3v-5.02c0-.55-.13-.95-.38-1.21-.25-.26-.63-.39-1.15-.39-.42,0-.79.11-1.11.34-.32.22-.57.52-.74.88v5.41h-1.3v-7.59h1.23Z"/>
    <path class="cls-1" d="M162.06,110.45c0-.74.15-1.41.44-2.01.29-.59.7-1.05,1.22-1.37.52-.32,1.12-.48,1.79-.48,1.03,0,1.87.36,2.51,1.07.64.72.96,1.67.96,2.86v.09c0,.74-.14,1.4-.42,1.99-.28.59-.69,1.04-1.21,1.37-.53.33-1.13.49-1.81.49-1.03,0-1.86-.36-2.5-1.07-.64-.72-.96-1.66-.96-2.84v-.09ZM163.37,110.61c0,.84.2,1.52.59,2.03.39.51.91.76,1.57.76s1.18-.26,1.57-.78c.39-.52.58-1.24.58-2.17,0-.83-.2-1.51-.59-2.02-.4-.52-.92-.78-1.57-.78s-1.16.25-1.55.76-.59,1.24-.59,2.19Z"/>
    <path class="cls-1" d="M175.24,112.3c0-.35-.13-.62-.4-.82-.26-.19-.72-.36-1.38-.5-.66-.14-1.18-.31-1.56-.51-.39-.2-.67-.43-.86-.7-.18-.27-.28-.59-.28-.97,0-.62.26-1.15.79-1.58.53-.43,1.2-.65,2.02-.65.86,0,1.56.22,2.09.67.54.44.8,1.01.8,1.7h-1.3c0-.36-.15-.66-.45-.92-.3-.26-.68-.39-1.14-.39s-.84.1-1.11.31c-.27.21-.4.47-.4.81,0,.31.12.55.37.71.25.16.7.31,1.34.46.65.14,1.17.32,1.57.52.4.2.7.44.89.73.19.28.29.63.29,1.03,0,.68-.27,1.22-.81,1.63-.54.41-1.25.61-2.11.61-.61,0-1.15-.11-1.61-.32-.47-.21-.83-.52-1.1-.9-.26-.39-.4-.8-.4-1.25h1.3c.02.43.2.78.52,1.03.32.25.75.38,1.29.38.49,0,.88-.1,1.18-.3.3-.2.45-.46.45-.8Z"/>
  </g>
</svg>