<?xml version="1.0" encoding="UTF-8"?>
<svg id="Layer_1" data-name="Layer 1" xmlns="http://www.w3.org/2000/svg" viewBox="0 0 1194.89 1172.59">
  <defs>
    <style>
      .cls-1 {
        fill: #231f20;
        stroke-width: 0px;
      }
    </style>
  </defs>
  <polygon class="cls-1" points="597.45 586.3 931.63 906.85 918 920.48 597.45 586.3 597.45 586.3"/>
  <polygon class="cls-1" points="1042.14 457.16 1047.14 475.79 597.45 586.3 597.45 586.3 1042.14 457.16"/>
  <polygon class="cls-1" points="1003.21 809.43 993.57 826.14 597.45 586.3 597.45 586.3 1003.21 809.43"/>
  <polygon class="cls-1" points="1047.14 696.8 1042.14 715.44 597.45 586.3 597.45 586.3 1047.14 696.8"/>
  <polygon class="cls-1" points="837.28 982.42 820.58 992.06 597.45 586.3 597.45 586.3 837.28 982.42"/>
  <polygon class="cls-1" points="597.45 586.3 1060.42 576.65 1060.42 595.94 597.45 586.3 597.45 586.3 597.45 586.3"/>
  <polygon class="cls-1" points="707.96 136.61 726.59 141.6 597.45 586.3 597.45 586.3 707.96 136.61"/>
  <polygon class="cls-1" points="597.45 586.3 918 252.11 931.63 265.75 597.45 586.3 597.45 586.3"/>
  <polygon class="cls-1" points="597.45 586.3 587.8 123.33 607.09 123.33 597.45 586.3 597.45 586.3 597.45 586.3"/>
  <polygon class="cls-1" points="993.57 346.46 1003.21 363.16 597.45 586.3 597.45 586.3 993.57 346.46"/>
  <polygon class="cls-1" points="726.59 1030.99 707.96 1035.99 597.45 586.3 597.45 586.3 726.59 1030.99"/>
  <polygon class="cls-1" points="191.68 363.16 201.33 346.46 597.45 586.3 597.45 586.3 191.68 363.16"/>
  <polygon class="cls-1" points="468.31 141.6 486.93 136.61 597.45 586.3 597.45 586.3 468.31 141.6"/>
  <polygon class="cls-1" points="147.76 475.79 152.75 457.16 597.45 586.3 597.45 586.3 147.76 475.79"/>
  <polygon class="cls-1" points="357.61 190.18 374.31 180.53 597.45 586.3 597.45 586.3 357.61 190.18"/>
  <polygon class="cls-1" points="374.31 992.06 357.61 982.42 597.45 586.3 597.45 586.3 374.31 992.06"/>
  <polygon class="cls-1" points="486.93 1035.99 468.31 1030.99 597.45 586.3 597.45 586.3 486.93 1035.99"/>
  <polygon class="cls-1" points="201.33 826.14 191.68 809.43 597.45 586.3 597.45 586.3 201.33 826.14"/>
  <polygon class="cls-1" points="152.75 715.44 147.76 696.8 597.45 586.3 597.45 586.3 152.75 715.44"/>
  <polygon class="cls-1" points="820.58 180.53 837.28 190.18 597.45 586.3 597.45 586.3 820.58 180.53"/>
  <polygon class="cls-1" points="597.45 586.3 607.09 1049.27 587.8 1049.27 597.45 586.3 597.45 586.3 597.45 586.3"/>
  <polygon class="cls-1" points="597.45 586.3 263.26 265.75 276.9 252.11 597.45 586.3 597.45 586.3"/>
  <polygon class="cls-1" points="597.45 586.3 276.9 920.48 263.26 906.85 597.45 586.3 597.45 586.3"/>
  <polygon class="cls-1" points="597.45 586.3 134.48 595.94 134.48 576.65 597.45 586.3 597.45 586.3 597.45 586.3"/>
</svg>