<?xml version="1.0" encoding="UTF-8"?>
<svg id="Layer_1" data-name="Layer 1" xmlns="http://www.w3.org/2000/svg" viewBox="0 0 671 200">
  <defs>
    <style>
      .cls-1 {
        fill: #fff;
        stroke-width: 0px;
      }
    </style>
  </defs>
  <g>
    <path class="cls-1" d="M235.49,69.48c-24.09,0-40.91,17.87-40.91,43.45s16.44,43.45,40.91,43.45c16.48,0,29.88-8.19,36.78-22.46l.65-1.34-14.19-7.05-.69,1.23c-5.19,9.19-12.36,13.65-21.91,13.65-13.46,0-22.63-8.13-24.27-21.34h62.35l.11-1.37c.1-1.17.32-4.16.32-6.53,0-24.94-15.74-41.69-39.16-41.69ZM212.09,104.39c1.98-11.56,11.06-18.94,23.56-18.94s20.23,7.21,21.86,18.94h-45.42Z"/>
    <path class="cls-1" d="M491.77,69.48c-9.9,0-17.91,3.38-23.38,9.82l-1.64-7.9h-14.62v83.06h17.12v-39.45c0-21.8,10.07-29.56,19.49-29.56,10.71,0,17.11,7.7,17.11,20.6v48.41h17.12v-49.69c0-22.42-11.38-35.28-31.21-35.28Z"/>
    <path class="cls-1" d="M358.1,135.24v-63.81h-14.68l-37.71,63.34v-63.34h-15.87v83.03h21.65l31.91-54.66-.05,54.66h8.91c46.02-6.44,49.07-83.03,49.07-83.03h-16.03s-2.61,50.24-27.2,63.81Z"/>
    <path class="cls-1" d="M162.52,110.52c-2.87,16.48-13.55,26.44-29.68,28.33-22.26,2.61-42.41-14.54-43.43-36.96-1.02-22.53,16.8-41.18,39.28-40.75,12.33.24,23.46,3.49,31.73,12.92l.22.25c.81.67,2.08,1.46,3.61,1.57,1.26.09,2.7-.27,4.21-1.54l.19-.13c2.83-2.01,5.6-3.97,8.49-6.02-1.33-1.75-2.22-3.11-3.3-4.3-16.63-18.26-37.4-23.6-60.56-18.07-30.06,7.18-47.78,37.75-40.42,67.88,7.24,29.65,38.22,48.31,67.78,41.14,28.77-6.98,44.07-31.86,40.18-59.53,0,0-.26-1.48-1.95-1.48h-47.88l-.03,11.41c0,.19.02.35.03.52.24,3.86,3.11,4.62,4.62,4.75h26.92Z"/>
    <g>
      <rect class="cls-1" x="415.28" y="71.4" width="17.12" height="83.06"/>
      <path class="cls-1" d="M415.03,43.75l18.66.02s-.27,6.7-3.14,11.66c-.21.37-.44.72-.68,1.06-1.45,2.07-3.45,3.67-6.2,4.05h-8.64v-16.79Z"/>
    </g>
  </g>
  <path class="cls-1" d="M600.64,142.6c.34-.8.8-1.48,1.37-2.04.58-.57,1.26-1.01,2.04-1.32.78-.32,1.62-.47,2.52-.47s1.73.16,2.51.47c.78.32,1.46.76,2.04,1.32.58.57,1.04,1.25,1.37,2.04.34.8.51,1.68.51,2.64s-.17,1.82-.51,2.61c-.34.79-.8,1.47-1.37,2.04-.58.57-1.26,1.01-2.04,1.31-.78.31-1.61.46-2.51.46s-1.73-.15-2.52-.46c-.78-.31-1.47-.75-2.04-1.31-.58-.57-1.04-1.24-1.37-2.04-.34-.79-.51-1.66-.51-2.61s.17-1.84.51-2.64ZM601.56,147.51c.28.68.67,1.27,1.16,1.75.49.49,1.06.86,1.73,1.13.66.26,1.37.4,2.13.4s1.49-.13,2.15-.4c.66-.27,1.24-.64,1.73-1.13.49-.49.87-1.07,1.14-1.75.27-.68.41-1.44.41-2.27s-.14-1.61-.41-2.3c-.27-.69-.65-1.28-1.14-1.76-.49-.49-1.06-.87-1.73-1.14-.66-.27-1.38-.41-2.15-.41s-1.47.14-2.13.41c-.66.27-1.24.65-1.73,1.14-.49.49-.87,1.08-1.16,1.76-.28.69-.43,1.45-.43,2.3s.14,1.59.43,2.27ZM606.55,145.65h-.8v2.11h-1.14v-5.53h1.69c.41,0,.77.02,1.1.07.32.05.6.13.82.26.22.12.39.3.51.52.12.22.18.51.18.87,0,.31-.08.59-.24.85-.16.26-.41.47-.76.62l1.28,2.34h-1.26l-1.12-2.11h-.25ZM607.42,143.29c-.24-.11-.55-.17-.94-.17h-.73v1.65h.8c.43,0,.75-.07.94-.21.19-.14.28-.34.28-.61,0-.33-.12-.56-.35-.67Z"/>
  <rect class="cls-1" x="553.82" y="145.28" width="36.36" height="1.35"/>
  <g>
    <path class="cls-1" d="M554.61,82.42h4.84c2.61,0,4.21,1.69,4.21,3.91,0,2.02-1.39,3.52-3.45,3.89l4.23,7.41h-2.35l-4.1-7.3h-1.32v7.3h-2.06v-15.2ZM559.37,88.43c1.46,0,2.22-.91,2.22-2.04s-.78-2.04-2.22-2.04h-2.69v4.08h2.69Z"/>
    <path class="cls-1" d="M565.88,92.19c0-3.17,2.02-5.69,5.39-5.69s5.15,2.41,5.15,5.45c0,.26-.02.61-.04.87h-8.56c.15,2,1.52,3.3,3.54,3.3,1.43,0,2.45-.69,3.17-1.95l1.58.78c-.82,1.69-2.48,2.93-4.84,2.93-3.43,0-5.39-2.48-5.39-5.69ZM574.5,91.23c-.15-1.78-1.35-2.97-3.21-2.97s-3.26,1.19-3.45,2.97h6.67Z"/>
    <path class="cls-1" d="M578.12,92.19c0-3.17,2.22-5.69,5.39-5.69,1.87,0,3.11.91,3.65,1.63l.28-1.37h1.65v10.86h-1.65l-.28-1.45c-.61.89-2.02,1.72-3.65,1.72-3.3,0-5.39-2.52-5.39-5.69ZM587.31,92.19c0-2.19-1.45-3.93-3.6-3.93s-3.61,1.74-3.61,3.93,1.43,3.93,3.61,3.93,3.6-1.74,3.6-3.93Z"/>
    <path class="cls-1" d="M592.71,82.09h1.93v15.53h-1.93v-15.53Z"/>
    <path class="cls-1" d="M554.61,108.47h8.56v1.93h-6.49v4.41h6.06v1.95h-6.06v4.97h6.49v1.93h-8.56v-15.2Z"/>
    <path class="cls-1" d="M564.94,121.04l1.63-.67c.35,1.15,1.15,1.85,2.41,1.85,1.11,0,1.85-.72,1.85-1.61s-.54-1.39-1.8-1.89l-1.39-.56c-1.13-.43-1.91-1.46-1.91-2.78,0-1.56,1.35-2.82,3.11-2.82,1.52,0,2.54.76,3.15,2.02l-1.54.89c-.33-.78-.89-1.19-1.61-1.19s-1.26.52-1.26,1.17c0,.78.63,1.11,1.26,1.37l1.59.63c1.3.54,2.26,1.56,2.26,3.15,0,1.89-1.48,3.34-3.8,3.34-2.04,0-3.32-1.17-3.93-2.89Z"/>
    <path class="cls-1" d="M575.45,114.57h-1.41v-1.76h1.41v-2.98l1.96-.37v3.34h2.35v1.76h-2.35v9.1h-1.96v-9.1Z"/>
    <path class="cls-1" d="M580.75,118.24c0-3.17,2.22-5.69,5.39-5.69,1.87,0,3.11.91,3.65,1.63l.28-1.37h1.65v10.86h-1.65l-.28-1.45c-.61.89-2.02,1.72-3.65,1.72-3.3,0-5.39-2.52-5.39-5.69ZM589.94,118.24c0-2.19-1.45-3.93-3.6-3.93s-3.61,1.74-3.61,3.93,1.43,3.93,3.61,3.93,3.6-1.74,3.6-3.93Z"/>
    <path class="cls-1" d="M595.62,114.57h-1.41v-1.76h1.41v-2.98l1.95-.37v3.34h2.35v1.76h-2.35v9.1h-1.95v-9.1Z"/>
    <path class="cls-1" d="M600.92,118.24c0-3.17,2.02-5.69,5.39-5.69s5.15,2.41,5.15,5.45c0,.26-.02.61-.04.87h-8.56c.15,2,1.52,3.3,3.54,3.3,1.43,0,2.45-.69,3.17-1.95l1.59.78c-.82,1.69-2.48,2.93-4.84,2.93-3.43,0-5.39-2.48-5.39-5.69ZM609.54,117.29c-.15-1.78-1.35-2.97-3.21-2.97s-3.26,1.19-3.45,2.97h6.67Z"/>
  </g>
</svg>