<?xml version="1.0" encoding="UTF-8"?>
<svg id="Layer_1" data-name="Layer 1" xmlns="http://www.w3.org/2000/svg" viewBox="0 0 999 200">
  <defs>
    <style>
      .cls-1 {
        fill: #fff;
      }

      .cls-1, .cls-2 {
        stroke-width: 0px;
      }

      .cls-2 {
        fill: #949599;
      }
    </style>
  </defs>
  <rect class="cls-2" x="65.31" y="37.88" width="86.08" height="24.65"/>
  <rect class="cls-2" x="65.31" y="68.53" width="86.08" height="24.75"/>
  <rect class="cls-2" x="65.31" y="99.28" width="86.08" height="24.61"/>
  <g>
    <path class="cls-1" d="M85.26,148.73c0,7.96-3.95,12.76-10.01,12.76s-9.97-4.8-9.97-12.76,3.91-12.72,9.97-12.72,10.01,4.78,10.01,12.72M68.94,148.73c0,6.22,2.32,9.57,6.31,9.57s6.31-3.4,6.31-9.57-2.3-9.58-6.31-9.58-6.31,3.34-6.31,9.58"/>
    <path class="cls-1" d="M104.14,136.35c6.02,0,9.03,2.13,9.03,6.28,0,2.65-1.24,4.38-3.86,5.47,2.94,1.08,4.47,3.18,4.47,6.16,0,4.53-3.08,6.83-9.26,6.83h-8.04v-24.74h7.66ZM99.97,146.63h4.64c3.28,0,4.98-1.31,4.98-3.78s-1.81-3.54-5.54-3.54h-4.09v7.32ZM99.97,158.1h4.55c3.9,0,5.69-1.27,5.69-4.31,0-2.75-1.96-4.23-5.62-4.23h-4.62v8.54Z"/>
    <path class="cls-1" d="M133.07,136.35c6.47,0,9.61,2.12,9.61,6.93,0,3.26-1.69,5.38-4.92,6.29l5.68,11.53h-3.89l-5.13-10.66h-5.41v10.66h-3.5v-24.74h7.56ZM129.01,147.37h4.07c4.02,0,5.95-1.21,5.95-3.98,0-3-1.81-4.03-5.87-4.03h-4.15v8.01Z"/>
    <path class="cls-1" d="M164.5,136.35l7.51,24.74h-3.62l-1.96-6.68h-8.89l-1.91,6.68h-3.55l7.57-24.74h4.86ZM158.38,151.41h7.13l-3.36-12.07h-.27l-3.5,12.07Z"/>
    <path class="cls-1" d="M193.43,142.82c-.91-2.56-2.66-3.8-5.05-3.8-2.17,0-3.53,1.29-3.53,3.08,0,2.2,1.51,3.27,4.63,4.53,1.93.85,3.8,1.47,5.27,2.7,1.63,1.37,2.4,3.04,2.4,5.13,0,4.11-3.09,6.97-7.92,6.97-4.37,0-7.54-2.19-8.91-6.28l3.31-1.33c1.04,2.96,3.09,4.56,5.69,4.56s4.34-1.64,4.34-3.86c0-2.45-2.03-3.34-5.72-4.83-4.46-1.83-6.77-3.54-6.77-7.07,0-3.72,3.03-6.62,7.53-6.62,4,0,6.81,2.1,7.94,5.76l-3.19,1.05Z"/>
    <path class="cls-1" d="M237.03,136.35c7.85,0,11.83,4.17,11.83,12.33s-4.11,12.4-12.24,12.4h-6.17v-24.74h6.57ZM233.99,157.89h2.36c6.2,0,8.94-2.59,8.94-9.21s-2.7-9.21-8.76-9.21h-2.54v18.42Z"/>
    <polygon class="cls-1" points="275.72 136.35 275.72 139.44 264.05 139.44 264.05 146.61 272.42 146.61 272.42 149.66 264.05 149.66 264.05 157.89 276.27 157.89 276.27 161.09 260.52 161.09 260.52 136.35 275.72 136.35"/>
    <rect class="cls-1" x="309.33" y="136.34" width="3.54" height="24.74"/>
    <path class="cls-1" d="M330.49,136.35l7.91,13.55c.92,1.69,1.89,3.45,2.81,5.34-.11-1.44-.14-3.07-.14-4.93v-13.96h3.32v24.74h-3.08l-8.86-14.83c-.91-1.47-1.96-3.31-3.11-5.62.12,1.57.16,3.34.16,5.23v15.22h-3.35v-24.74h4.35Z"/>
    <path class="cls-1" d="M370.84,143.59c-.88-2.91-2.75-4.55-5.28-4.55-4.04,0-6.28,3.31-6.28,9.81,0,6.09,2.49,9.52,6.39,9.52,3.38,0,5.38-2.3,5.4-6.53h-5.22v-2.99h8.86v12.23h-2.79l-.18-2.67c-1.56,2.11-3.68,3.07-6.43,3.07-5.96,0-9.61-4.66-9.61-12.66s3.71-12.81,10.02-12.81c4.25,0,7.29,2.42,8.53,6.79l-3.41.79Z"/>
    <polygon class="cls-1" points="402.01 136.35 402.01 139.44 390.38 139.44 390.38 146.61 398.72 146.61 398.72 149.66 390.38 149.66 390.38 157.89 402.57 157.89 402.57 161.09 386.83 161.09 386.83 136.35 402.01 136.35"/>
    <path class="cls-1" d="M417.78,136.35l7.88,13.55c.93,1.69,1.89,3.45,2.84,5.34-.12-1.44-.17-3.07-.17-4.93v-13.96h3.34v24.74h-3.09l-8.9-14.83c-.9-1.47-1.9-3.31-3.07-5.62.12,1.57.13,3.34.13,5.23v15.22h-3.32v-24.74h4.35Z"/>
    <rect class="cls-1" x="444.9" y="136.34" width="3.55" height="24.74"/>
    <polygon class="cls-1" points="477.02 136.35 477.02 139.44 465.37 139.44 465.37 146.61 473.73 146.61 473.73 149.66 465.37 149.66 465.37 157.89 477.54 157.89 477.54 161.09 461.84 161.09 461.84 136.35 477.02 136.35"/>
    <path class="cls-1" d="M496,136.35c6.48,0,9.61,2.12,9.61,6.93,0,3.26-1.66,5.38-4.86,6.29l5.69,11.53h-3.9l-5.13-10.66h-5.43v10.66h-3.49v-24.74h7.52ZM491.96,147.37h4.08c4.05,0,5.97-1.21,5.97-3.98,0-3-1.82-4.03-5.88-4.03h-4.18v8.01Z"/>
    <rect class="cls-1" x="518.01" y="136.34" width="3.56" height="24.74"/>
    <path class="cls-1" d="M544.64,136.35l7.52,24.74h-3.65l-1.9-6.68h-8.92l-1.89,6.68h-3.61l7.58-24.74h4.87ZM538.57,151.41h7.07l-3.34-12.07h-.29l-3.44,12.07Z"/>
    <polygon class="cls-1" points="585.4 136.35 590.8 147.26 596.17 136.35 599.8 136.35 592.52 150.92 592.52 161.09 588.96 161.09 588.96 150.95 581.59 136.35 585.4 136.35"/>
    <path class="cls-1" d="M641.61,136.35l7.5,24.74h-3.61l-1.96-6.68h-8.87l-1.92,6.68h-3.57l7.58-24.74h4.85ZM635.51,151.41h7.11l-3.37-12.07h-.28l-3.46,12.07Z"/>
    <path class="cls-1" d="M666.99,136.35c6.47,0,9.65,2.12,9.65,6.93,0,3.26-1.7,5.38-4.92,6.29l5.68,11.53h-3.9l-5.14-10.66h-5.41v10.66h-3.52v-24.74h7.57ZM662.94,147.37h4.05c4.07,0,6.01-1.21,6.01-3.98,0-3-1.85-4.03-5.91-4.03h-4.15v8.01Z"/>
    <path class="cls-1" d="M707.64,159.66v3.36h-.19c-2.19,0-3.83-1.01-5.33-3.03-1.57,1.04-3.22,1.5-5.17,1.5-5.9,0-9.88-4.8-9.88-12.76s3.98-12.72,9.72-12.72c6.29,0,10.22,4.78,10.22,12.44,0,3.87-.76,6.9-2.56,9.34.94,1.22,1.95,1.8,3.2,1.87M703.34,148.73c0-6.17-2.38-9.58-6.26-9.58s-6.43,3.38-6.43,9.64,2.36,9.51,6.43,9.51c1.31,0,2.36-.32,3.39-1.08-.84-1.28-1.81-1.92-2.95-2.07v-3.32c1.85.02,3.34.87,4.75,2.79.78-1.48,1.07-3.43,1.07-5.89"/>
    <path class="cls-1" d="M721.85,136.35v15.66c0,4.35,1.44,6.37,5.56,6.37s5.57-2.05,5.57-6.37v-15.66h3.47v16.42c0,5.72-3.17,8.72-9.23,8.72s-8.93-3.11-8.93-9.09v-16.04h3.56Z"/>
    <rect class="cls-1" x="749.68" y="136.34" width="3.54" height="24.74"/>
    <polygon class="cls-1" points="781.63 136.35 781.63 139.5 774.73 139.5 774.73 161.09 771.06 161.09 771.06 139.5 764.23 139.5 764.23 136.35 781.63 136.35"/>
    <polygon class="cls-1" points="807.5 136.35 807.5 139.44 795.87 139.44 795.87 146.61 804.2 146.61 804.2 149.66 795.87 149.66 795.87 157.89 808.05 157.89 808.05 161.09 792.33 161.09 792.33 136.35 807.5 136.35"/>
    <path class="cls-1" d="M832,143.8c-.69-3.16-2.45-4.78-5.22-4.78-3.64,0-5.87,3.39-5.87,9.8s2.18,9.55,6.11,9.55c2.79,0,4.83-1.78,5.48-5.03l3.27.85c-1.28,4.81-4.24,7.29-8.85,7.29-6.17,0-9.64-4.39-9.64-12.7s3.67-12.78,9.64-12.78c4.54,0,7.36,2.42,8.41,6.96l-3.34.83Z"/>
    <polygon class="cls-1" points="861.59 136.35 861.59 139.5 854.71 139.5 854.71 161.09 851.08 161.09 851.08 139.5 844.2 139.5 844.2 136.35 861.59 136.35"/>
    <path class="cls-1" d="M875.76,136.35v15.66c0,4.35,1.44,6.37,5.57,6.37s5.54-2.05,5.54-6.37v-15.66h3.53v16.42c0,5.72-3.21,8.72-9.3,8.72s-8.91-3.11-8.91-9.09v-16.04h3.57Z"/>
    <path class="cls-1" d="M910.86,136.35c6.49,0,9.61,2.12,9.61,6.93,0,3.26-1.68,5.38-4.88,6.29l5.67,11.53h-3.9l-5.15-10.66h-5.42v10.66h-3.5v-24.74h7.57ZM906.78,147.37h4.11c4.03,0,5.94-1.21,5.94-3.98,0-3-1.79-4.03-5.88-4.03h-4.17v8.01Z"/>
    <path class="cls-1" d="M942.29,136.35l7.53,24.74h-3.66l-1.92-6.68h-8.88l-1.92,6.68h-3.62l7.59-24.74h4.87ZM936.2,151.41h7.09l-3.36-12.07h-.24l-3.49,12.07Z"/>
    <polygon class="cls-1" points="311.07 37.91 329.99 37.91 329.99 107.99 378.45 107.99 378.45 123.88 311.07 123.88 311.07 37.91"/>
    <polygon class="cls-1" points="237.44 37.91 304.82 37.91 304.82 53.81 256.35 53.81 256.35 72.22 304.72 72.22 304.72 86.9 256.35 86.9 256.35 107.99 304.7 107.99 304.7 123.88 237.44 123.88 237.44 37.91"/>
    <path class="cls-1" d="M163.79,37.91h38.4c21.21,0,29.44,13.47,29.44,27.3s-8.23,27.27-29.44,27.27h-19.67v31.4h-18.73V37.91ZM182.51,77.95h14.56c8.69,0,16.42-1.91,16.42-12.74s-7.72-12.73-16.42-12.73h-14.56v25.48Z"/>
    <path class="cls-1" d="M598.03,114.13c-6.64,8.56-15.28,11.76-23.61,11.76-26.58,0-42.27-19.81-42.27-44.64s15.69-45.4,42.27-45.4c17.6,0,34.24,10.84,36.26,30.36h-18.05c-2.19-9.53-9.3-14.47-18.21-14.47-16.97,0-23.33,14.47-23.33,29.51s6.36,28.76,23.33,28.76c12.3,0,19.41-6.62,20.52-18.52h-19.05v-14.07h36.13v46.46h-12.06l-1.92-9.76Z"/>
    <rect class="cls-1" x="698.07" y="37.91" width="18.51" height="85.97"/>
    <polygon class="cls-1" points="722.49 37.91 741.27 37.91 778.19 95.6 778.48 95.6 778.48 37.91 796.17 37.91 796.17 123.88 777.25 123.88 740.44 66.34 740.18 66.34 740.18 123.88 722.49 123.88 722.49 37.91"/>
    <polygon class="cls-1" points="903.48 53.81 876.08 53.81 876.08 37.91 950 37.91 950 53.81 922.36 53.81 922.36 123.88 903.48 123.88 903.48 53.81"/>
    <polygon class="cls-1" points="458.52 37.91 525.95 37.91 525.95 53.81 477.47 53.81 477.47 72.22 525.84 72.22 525.84 86.9 477.47 86.9 477.47 107.99 525.84 107.99 525.84 123.88 458.52 123.88 458.52 37.91"/>
    <polygon class="cls-1" points="802.46 37.91 869.89 37.91 869.89 53.81 821.39 53.81 821.39 72.22 869.75 72.22 869.75 86.9 821.39 86.9 821.39 107.99 869.75 107.99 869.75 123.88 802.46 123.88 802.46 37.91"/>
    <polygon class="cls-1" points="384.75 37.91 403.64 37.91 403.64 107.99 452.1 107.99 452.1 123.88 384.75 123.88 384.75 37.91"/>
    <path class="cls-1" d="M692.09,123.84l-21.41-33.7c10.99-4.5,15.51-14.62,15.51-24.85,0-13.9-8.21-27.38-29.49-27.38h-38.45v85.86h18.75v-31.2h15.32l19.08,31.26h20.68ZM637,52.5h14.56c8.72,0,16.51,1.89,16.51,12.79s-7.79,12.77-16.51,12.77h-14.56v-25.55Z"/>
  </g>
</svg>